<svg width="70" height="70" viewBox="0 0 70 70" fill="none" xmlns="http://www.w3.org/2000/svg">
<path d="M10.6851 60.1751C7.34223 56.9464 4.67585 53.0844 2.84154 48.8142C1.00722 44.5441 0.0417051 39.9514 0.00132149 35.3041C-0.0390621 30.6569 0.846497 26.0481 2.60633 21.7467C4.36616 17.4453 6.96502 13.5375 10.2513 10.2513C13.5375 6.96502 17.4453 4.36616 21.7467 2.60633C26.0481 0.846497 30.6569 -0.0390621 35.3041 0.00132149C39.9514 0.0417051 44.5441 1.00722 48.8142 2.84154C53.0844 4.67585 56.9464 7.34223 60.1751 10.6851C66.5506 17.2862 70.0784 26.1272 69.9987 35.3041C69.9189 44.481 66.238 53.2595 59.7487 59.7487C53.2595 66.238 44.481 69.9189 35.3041 69.9987C26.1272 70.0784 17.2862 66.5506 10.6851 60.1751ZM40.3301 35.4301L50.2351 25.5251L45.3001 20.5901L35.4301 30.4951L25.5251 20.5901L20.5901 25.5251L30.4951 35.4301L20.5901 45.3351L25.5251 50.2701L35.4301 40.3651L45.3351 50.2701L50.2701 45.3351L40.3651 35.4301H40.3301Z" fill="#DDD19D"/>
</svg>
